<svg id="Layer_1" data-name="Layer 1" xmlns="http://www.w3.org/2000/svg" viewBox="0 0 349 24.95">
  <defs>
    <style>
      .cls-1 {
        fill: #2e549f;
      }
    </style>
  </defs>
  <title>EN-Logotype-Blue</title>
  <g>
    <polygon class="cls-1" points="17.43 0.42 0 0.42 0 24.54 17.61 24.54 17.61 22.06 2.72 22.06 2.72 13.62 15.88 13.62 15.88 11.14 2.72 11.14 2.72 2.9 17.43 2.9 17.43 0.42 17.43 0.42"/>
    <path class="cls-1" d="M53.26,21.44V11.83h-10v2.45H50.6v6a11.36,11.36,0,0,1-7,2.41c-5.86,0-9.54-4.27-9.54-10.06,0-5.41,3.82-9.92,9.16-9.92a10.26,10.26,0,0,1,7.34,2.76L52.4,3.39a12.71,12.71,0,0,0-9-3.2C36.17.19,31.32,6,31.32,12.69c0,6.92,4.69,12.44,12.27,12.44a14.61,14.61,0,0,0,9.68-3.69Z" transform="translate(0 -0.18)"/>
    <path class="cls-1" d="M84.34,15.9h-11L78.86,3.6ZM80.17.43H77.62l-11,24.29h2.79l2.86-6.37H85.41l2.83,6.37h2.93Z" transform="translate(0 -0.18)"/>
    <polygon class="cls-1" points="122.96 19.75 107.77 0.42 105.22 0.42 105.22 24.54 107.87 24.54 107.87 4.76 123.44 24.54 125.61 24.54 125.61 0.42 122.96 0.42 122.96 19.75 122.96 19.75"/>
    <polygon class="cls-1" points="176.88 19.75 161.68 0.42 159.13 0.42 159.13 24.54 161.79 24.54 161.79 4.76 177.36 24.54 179.53 24.54 179.53 0.42 176.88 0.42 176.88 19.75 176.88 19.75"/>
    <polygon class="cls-1" points="213.09 0.42 195.65 0.42 195.65 24.54 213.26 24.54 213.26 22.06 198.38 22.06 198.38 13.62 211.54 13.62 211.54 11.14 198.38 11.14 198.38 2.9 213.09 2.9 213.09 0.42 213.09 0.42"/>
    <polygon class="cls-1" points="228.04 24.54 244.34 24.54 244.34 22.02 230.76 22.02 230.76 0.42 228.04 0.42 228.04 24.54 228.04 24.54"/>
    <path class="cls-1" d="M260.77,6.63c0-2.2,2-3.93,5.13-3.93a10.59,10.59,0,0,1,7,2.62l1.59-2.1a12.58,12.58,0,0,0-8.48-3c-4.62,0-8,2.78-8,6.65s2.55,5.79,8.1,7c5.07,1.07,6.27,2.34,6.27,4.62,0,2.45-2.14,4.13-5.37,4.13a11.49,11.49,0,0,1-8.27-3.41l-1.69,2a14.11,14.11,0,0,0,9.85,3.86c4.79,0,8.23-2.69,8.23-6.86,0-3.72-2.48-5.68-7.85-6.86s-6.55-2.41-6.55-4.72Z" transform="translate(0 -0.18)"/>
    <path class="cls-1" d="M310.67,11.57c.57,6-3.49,11-9.36,11a9.65,9.65,0,0,1-9.49-8.87c-.57-6,3.49-11,9.36-11A9.65,9.65,0,0,1,310.67,11.57Zm2.88,1.05A12.3,12.3,0,1,0,301.29,25a12.3,12.3,0,0,0,12.27-12.34Z" transform="translate(0 -0.18)"/>
    <polygon class="cls-1" points="346.35 19.75 331.15 0.42 328.6 0.42 328.6 24.54 331.26 24.54 331.26 4.76 346.83 24.54 349 24.54 349 0.42 346.35 0.42 346.35 19.75 346.35 19.75"/>
  </g>
</svg>
